<svg width="197" height="58" viewBox="0 0 197 58" fill="none" xmlns="http://www.w3.org/2000/svg">
<g clip-path="url(#clip0_3510_568)">
<path fill-rule="evenodd" clip-rule="evenodd" d="M189.082 58.0099H7.8064C3.80846 58.0099 0.55249 54.7405 0.55249 50.7587V7.25124C0.55249 3.25492 3.80846 0 7.8064 0H189.082C193.076 0 196.336 3.25492 196.336 7.25124V50.7587C196.336 54.7405 193.076 58.0099 189.082 58.0099Z" fill="black"/>
<path fill-rule="evenodd" clip-rule="evenodd" d="M189.082 1.16092C192.435 1.16092 195.18 3.89867 195.18 7.25124V50.7587C195.18 54.1112 192.453 56.849 189.082 56.849H7.8064C4.45318 56.849 1.70865 54.1112 1.70865 50.7587V7.25124C1.70865 3.89867 4.43517 1.16092 7.8064 1.16092H189.082ZM189.082 0H7.8064C3.80846 0 0.55249 3.26939 0.55249 7.25124V50.7587C0.55249 54.755 3.80846 58.0099 7.8064 58.0099H189.082C193.076 58.0099 196.336 54.755 196.336 50.7587V7.25124C196.336 3.26939 193.076 0 189.082 0Z" fill="#A6A6A6"/>
<path d="M103.691 19.1893C102.384 19.1893 101.282 18.73 100.41 17.8259C99.5459 16.947 99.0632 15.7355 99.0849 14.4986C99.0849 13.1786 99.5315 12.061 100.41 11.175C101.278 10.2708 102.38 9.81152 103.688 9.81152C104.981 9.81152 106.083 10.2708 106.969 11.175C107.848 12.09 108.294 13.2075 108.294 14.4986C108.28 15.8223 107.833 16.9398 106.969 17.8222C106.101 18.7336 104.999 19.1893 103.691 19.1893ZM64.7893 19.1893C63.5107 19.1893 62.4013 18.7372 61.4937 17.8439C60.5933 16.9543 60.1359 15.8295 60.1359 14.5022C60.1359 13.1749 60.5933 12.0502 61.4937 11.1605C62.3833 10.2672 63.4927 9.81514 64.7893 9.81514C65.4232 9.81514 66.0391 9.94172 66.6298 10.1985C67.2096 10.448 67.6815 10.788 68.0308 11.2039L68.1173 11.3088L67.1412 12.2708L67.0404 12.1514C66.4893 11.4932 65.7509 11.1714 64.7749 11.1714C63.9033 11.1714 63.1433 11.4824 62.5166 12.0972C61.8863 12.7156 61.5657 13.5257 61.5657 14.5058C61.5657 15.4859 61.8863 16.296 62.5166 16.9145C63.1433 17.5293 63.9033 17.8403 64.7749 17.8403C65.7041 17.8403 66.4857 17.5293 67.0944 16.9145C67.4546 16.5528 67.6779 16.0465 67.7571 15.4064H64.6272V14.0538H69.1005L69.1185 14.1767C69.151 14.4046 69.1834 14.6397 69.1834 14.8566C69.1834 16.1044 68.8088 17.1134 68.0668 17.8584C67.224 18.7409 66.1219 19.1893 64.7893 19.1893ZM116.514 18.9976H115.134L110.909 12.2093L110.945 13.4317V18.994H109.566V10.0068H111.14L111.183 10.0755L115.156 16.4696L115.12 15.2509V10.0068H116.514V18.9976ZM93.3257 18.9976H91.9282V11.3594H89.5043V10.0068H95.7461V11.3594H93.3221V18.9976H93.3257ZM88.3661 18.9976H86.9723V10.0068H88.3661V18.9976ZM80.5324 18.9976H79.1385V11.3594H76.7146V10.0068H82.9564V11.3594H80.5324V18.9976ZM75.8322 18.9832H70.4872V10.0068H75.8322V11.3594H71.8847V13.8259H75.4468V15.1641H71.8847V17.6306H75.8322V18.9832ZM101.433 16.8964C102.056 17.5221 102.813 17.8367 103.691 17.8367C104.595 17.8367 105.334 17.5293 105.95 16.8964C106.562 16.2816 106.872 15.4751 106.872 14.5022C106.872 13.5294 106.562 12.7193 105.953 12.1081C105.33 11.4824 104.57 11.1677 103.695 11.1677C102.791 11.1677 102.053 11.4751 101.44 12.1081C100.828 12.7229 100.518 13.5294 100.518 14.5022C100.518 15.4751 100.824 16.2852 101.433 16.8964Z" fill="white"/>
<path fill-rule="evenodd" clip-rule="evenodd" d="M98.9559 31.551C95.5523 31.551 92.7933 34.1441 92.7933 37.7209C92.7933 41.2651 95.5703 43.8907 98.9559 43.8907C102.36 43.8907 105.118 41.2796 105.118 37.7209C105.118 34.1441 102.36 31.551 98.9559 31.551ZM98.9559 41.4459C97.0938 41.4459 95.491 39.898 95.491 37.7064C95.491 35.4822 97.0974 33.9668 98.9559 33.9668C100.818 33.9668 102.421 35.4822 102.421 37.7064C102.424 39.9125 100.818 41.4459 98.9559 41.4459ZM85.5106 31.551C82.1069 31.551 79.348 34.1441 79.348 37.7209C79.348 41.2651 82.1249 43.8907 85.5106 43.8907C88.9142 43.8907 91.6732 41.2796 91.6732 37.7209C91.6732 34.1441 88.9106 31.551 85.5106 31.551ZM85.5106 41.4459C83.6485 41.4459 82.0457 39.898 82.0457 37.7064C82.0457 35.4822 83.6521 33.9668 85.5106 33.9668C87.3727 33.9668 88.9755 35.4822 88.9755 37.7064C88.9755 39.9125 87.3727 41.4459 85.5106 41.4459ZM69.5116 33.4352V36.0464H75.7535C75.5626 37.5111 75.0799 38.5924 74.3416 39.3338C73.4267 40.2525 72.0148 41.2506 69.526 41.2506C65.6902 41.2506 62.6899 38.1404 62.6899 34.2887C62.6899 30.4371 65.6902 27.3268 69.526 27.3268C71.597 27.3268 73.1062 28.1478 74.2263 29.1966L76.0704 27.3449C74.5145 25.8476 72.4435 24.7012 69.5404 24.7012C64.2783 24.7012 59.8625 29.0049 59.8625 34.2743C59.8625 39.5581 64.2747 43.8473 69.5404 43.8473C72.3822 43.8473 74.5145 42.9143 76.2001 41.1566C77.9181 39.4315 78.462 36.9975 78.462 35.0337C78.462 34.4225 78.4151 33.8728 78.3179 33.4063H69.508C69.5116 33.4027 69.5116 33.4352 69.5116 33.4352ZM134.952 35.4677C134.437 34.0826 132.881 31.5365 129.69 31.5365C126.527 31.5365 123.898 34.0356 123.898 37.7064C123.898 41.1711 126.498 43.8763 129.996 43.8763C132.805 43.8763 134.44 42.1512 135.114 41.1385L133.028 39.7353C132.337 40.766 131.375 41.4423 130.01 41.4423C128.631 41.4423 127.665 40.813 127.024 39.5725L135.24 36.1549C135.24 36.1585 134.952 35.4677 134.952 35.4677ZM126.574 37.5292C126.509 35.1458 128.418 33.9343 129.783 33.9343C130.86 33.9343 131.757 34.4659 132.063 35.2399L126.574 37.5292ZM119.9 43.5074H122.598V25.3811H119.9V43.5074ZM115.47 32.9217H115.373C114.764 32.1947 113.608 31.5365 112.131 31.5365C109.066 31.5365 106.242 34.2453 106.242 37.7245C106.242 41.1891 109.052 43.8654 112.131 43.8654C113.59 43.8654 114.764 43.2036 115.373 42.4622H115.47V43.3482C115.47 45.7026 114.217 46.9721 112.196 46.9721C110.543 46.9721 109.516 45.7786 109.098 44.7804L106.754 45.7641C107.427 47.3916 109.224 49.406 112.192 49.406C115.355 49.406 118.034 47.5362 118.034 42.9757V31.9054H115.484V32.9217C115.488 32.9217 115.47 32.9217 115.47 32.9217ZM112.372 41.4459C110.51 41.4459 108.954 39.8836 108.954 37.7245C108.954 35.5473 110.51 33.9705 112.372 33.9705C114.217 33.9705 115.646 35.5654 115.646 37.7245C115.664 39.8836 114.22 41.4459 112.372 41.4459ZM147.583 25.3811H141.132V43.5074H143.83V36.6431H147.587C150.573 36.6431 153.508 34.4695 153.508 31.0193C153.508 27.5691 150.583 25.3811 147.583 25.3811ZM147.662 34.1115H143.826V27.891H147.662C149.683 27.891 150.825 29.5655 150.825 31.0013C150.825 32.4226 149.668 34.1115 147.662 34.1115ZM164.32 31.5184C162.361 31.5184 160.34 32.39 159.505 34.2887L161.896 35.2869C162.411 34.2887 163.355 33.9488 164.353 33.9488C165.75 33.9488 167.162 34.7878 167.195 36.2851V36.4767C166.712 36.2019 165.653 35.7824 164.385 35.7824C161.803 35.7824 159.184 37.2001 159.184 39.8582C159.184 42.2922 161.302 43.8546 163.661 43.8546C165.473 43.8546 166.471 43.0336 167.094 42.0824H167.191V43.4857H169.791V36.5418C169.791 33.3086 167.4 31.5184 164.32 31.5184ZM163.982 41.4459C163.099 41.4459 161.864 41.0119 161.864 39.898C161.864 38.4948 163.406 37.9632 164.72 37.9632C165.909 37.9632 166.471 38.2199 167.177 38.5744C166.982 40.2018 165.613 41.4315 163.982 41.4459ZM179.278 31.9054L176.181 39.7678H176.084L172.875 31.9054H169.972L174.787 42.8962L172.043 49.0046H174.852L182.261 31.9054H179.278ZM154.995 43.5074H157.693V25.3811H154.995V43.5074Z" fill="white"/>
<path fill-rule="evenodd" clip-rule="evenodd" d="M15.622 10.9258C15.2042 11.3778 14.9629 12.0686 14.9629 12.9728V45.041C14.9629 45.9451 15.2042 46.6359 15.6364 47.0699L15.7481 47.1675L33.6415 29.2003V28.7989L15.7337 10.8281L15.622 10.9258Z" fill="url(#paint0_linear_3510_568)"/>
<path fill-rule="evenodd" clip-rule="evenodd" d="M39.5952 35.2076L33.6271 29.2149V28.7954L39.5952 22.8027L39.7249 22.8823L46.7843 26.9112C48.8049 28.054 48.8049 29.9419 46.7843 31.0992L39.7249 35.128L39.5952 35.2076Z" fill="url(#paint1_linear_3510_568)"/>
<path fill-rule="evenodd" clip-rule="evenodd" d="M39.725 35.1277L33.6273 29.0049L15.6222 47.0842C16.2813 47.793 17.387 47.8726 18.6224 47.1818L39.725 35.1277Z" fill="url(#paint2_linear_3510_568)"/>
<path fill-rule="evenodd" clip-rule="evenodd" d="M39.725 22.8817L18.6224 10.8457C17.387 10.1368 16.2777 10.2345 15.6222 10.9433L33.6273 29.0045L39.725 22.8817Z" fill="url(#paint3_linear_3510_568)"/>
<path opacity="0.2" fill-rule="evenodd" clip-rule="evenodd" d="M39.5953 34.998L18.6366 46.9544C17.466 47.6307 16.4215 47.5837 15.748 46.9689L15.6364 47.081L15.748 47.1786C16.4215 47.7898 17.466 47.8405 18.6366 47.1642L39.7393 35.1282L39.5953 34.998Z" fill="black"/>
<path opacity="0.12" fill-rule="evenodd" clip-rule="evenodd" d="M46.7845 30.8891L39.5775 34.9976L39.7071 35.1277L46.7665 31.0989C47.7786 30.5202 48.2757 29.7607 48.2757 29.0049C48.2144 29.6993 47.6994 30.3575 46.7845 30.8891Z" fill="black"/>
<path opacity="0.25" fill-rule="evenodd" clip-rule="evenodd" d="M18.6223 11.0559L46.7843 27.1207C47.6991 27.6379 48.2142 28.3142 48.2934 29.005C48.2934 28.2491 47.7964 27.4896 46.7843 26.911L18.6223 10.8461C16.6017 9.68521 14.9629 10.6545 14.9629 12.9727V13.1824C14.9629 10.8606 16.6017 9.90944 18.6223 11.0559Z" fill="white"/>
</g>
<defs>
<linearGradient id="paint0_linear_3510_568" x1="32.0365" y1="12.6268" x2="3.35872" y2="20.2367" gradientUnits="userSpaceOnUse">
<stop stop-color="#00A0FF"/>
<stop offset="0.00657" stop-color="#00A1FF"/>
<stop offset="0.2601" stop-color="#00BEFF"/>
<stop offset="0.5122" stop-color="#00D2FF"/>
<stop offset="0.7604" stop-color="#00DFFF"/>
<stop offset="1" stop-color="#00E3FF"/>
</linearGradient>
<linearGradient id="paint1_linear_3510_568" x1="49.4193" y1="29.0052" x2="14.4716" y2="29.0052" gradientUnits="userSpaceOnUse">
<stop stop-color="#FFE000"/>
<stop offset="0.4087" stop-color="#FFBD00"/>
<stop offset="0.7754" stop-color="#FFA500"/>
<stop offset="1" stop-color="#FF9C00"/>
</linearGradient>
<linearGradient id="paint2_linear_3510_568" x1="36.4093" y1="32.3366" x2="13.2594" y2="71.1401" gradientUnits="userSpaceOnUse">
<stop stop-color="#FF3A44"/>
<stop offset="1" stop-color="#C31162"/>
</linearGradient>
<linearGradient id="paint3_linear_3510_568" x1="11.0883" y1="0.258853" x2="21.4165" y2="17.5892" gradientUnits="userSpaceOnUse">
<stop stop-color="#32A071"/>
<stop offset="0.0685" stop-color="#2DA771"/>
<stop offset="0.4762" stop-color="#15CF74"/>
<stop offset="0.8009" stop-color="#06E775"/>
<stop offset="1" stop-color="#00F076"/>
</linearGradient>
<clipPath id="clip0_3510_568">
<rect width="195.783" height="58.0099" fill="white" transform="translate(0.55249)"/>
</clipPath>
</defs>
</svg>
