<svg width="174" height="58" viewBox="0 0 174 58" fill="none" xmlns="http://www.w3.org/2000/svg">
<path d="M159.723 0.000188532H13.8277C13.2958 0.000188532 12.7704 0.000188532 12.24 0.00308903C11.796 0.00598952 11.3556 0.0144155 10.9073 0.0215072C9.93349 0.0329667 8.96196 0.118639 8.00116 0.27778C7.04171 0.440386 6.11232 0.746944 5.24442 1.18709C4.37757 1.63095 3.58551 2.20771 2.89697 2.89644C2.20482 3.58322 1.62785 4.37706 1.18826 5.24742C0.747458 6.11604 0.441804 7.04685 0.281856 8.0077C0.120386 8.96734 0.0334984 9.93804 0.0219713 10.9111C0.00851296 11.3557 0.00709171 11.8019 0 12.2466V45.768C0.00709171 46.2183 0.00851296 46.6545 0.0219713 47.105C0.0335019 48.078 0.12039 49.0486 0.281856 50.0082C0.441363 50.9696 0.747035 51.901 1.18826 52.7699C1.62765 53.6375 2.2047 54.4281 2.89697 55.1111C3.5829 55.8028 4.37547 56.38 5.24442 56.8205C6.11231 57.2618 7.04161 57.5702 8.00116 57.7353C8.96213 57.8931 9.93356 57.9789 10.9073 57.9917C11.3556 58.0015 11.796 58.0072 12.24 58.0072C12.7704 58.0101 13.2959 58.0101 13.8277 58.0101H159.723C160.244 58.0101 160.774 58.0101 161.295 58.0072C161.737 58.0072 162.19 58.0015 162.632 57.9917C163.604 57.9795 164.573 57.8938 165.532 57.7353C166.495 57.569 167.428 57.2607 168.3 56.8205C169.168 56.3797 169.96 55.8026 170.645 55.1111C171.335 54.4254 171.914 53.6354 172.359 52.7699C172.797 51.9003 173.099 50.9691 173.256 50.0082C173.418 49.0485 173.508 48.0781 173.526 47.105C173.531 46.6545 173.531 46.2183 173.531 45.768C173.543 45.2411 173.543 44.7171 173.543 44.1817V13.8299C173.543 13.2988 173.543 12.772 173.531 12.2466C173.531 11.8019 173.531 11.3557 173.526 10.911C173.508 9.9379 173.418 8.96741 173.256 8.00765C173.099 7.04735 172.796 6.11661 172.359 5.24736C171.463 3.50282 170.044 2.08278 168.3 1.18696C167.428 0.747889 166.495 0.441413 165.532 0.27765C164.573 0.117808 163.604 0.0321052 162.632 0.0213041C162.19 0.0142269 161.737 0.00572848 161.295 0.0029005C160.774 0 160.244 0 159.723 0V0.000188532Z" fill="#A6A6A6"/>
<path d="M12.2471 56.741C11.8053 56.741 11.3741 56.7354 10.9357 56.7255C10.0275 56.7137 9.12146 56.6346 8.22497 56.489C7.38903 56.345 6.57923 56.0772 5.82228 55.6944C5.07228 55.3147 4.38821 54.8169 3.79629 54.2201C3.1958 53.6302 2.69586 52.9461 2.3163 52.1948C1.93254 51.4386 1.66697 50.6281 1.52881 49.7914C1.37962 48.8924 1.2989 47.9834 1.28734 47.0722C1.27815 46.7664 1.26611 45.748 1.26611 45.748V12.2465C1.26611 12.2465 1.27893 11.2437 1.28742 10.9492C1.29848 10.0394 1.37873 9.13178 1.52748 8.23419C1.66589 7.39525 1.93167 6.58239 2.31563 5.82373C2.6938 5.07296 3.19096 4.38832 3.78783 3.79636C4.38403 3.19877 5.07029 2.69841 5.82157 2.31353C6.57678 1.93194 7.38505 1.66602 8.2193 1.52468C9.11874 1.37757 10.0279 1.29804 10.9393 1.28675L12.2478 1.26904H161.288L162.612 1.28746C163.515 1.29819 164.416 1.37701 165.307 1.52326C166.15 1.66637 166.966 1.93415 167.73 2.31778C169.235 3.09343 170.46 4.3206 171.233 5.82727C171.61 6.58069 171.872 7.38692 172.009 8.21862C172.159 9.12357 172.244 10.0383 172.261 10.9555C172.265 11.3662 172.265 11.8074 172.265 12.2465C172.277 12.7903 172.277 13.3079 172.277 13.8298V44.1816C172.277 44.7085 172.277 45.2226 172.265 45.7409C172.265 46.2125 172.265 46.6445 172.259 47.0892C172.242 47.99 172.16 48.8885 172.012 49.7772C171.876 50.6199 171.612 51.4368 171.228 52.1991C170.846 52.9423 170.349 53.6205 169.756 54.2087C169.163 54.8088 168.478 55.3095 167.726 55.6916C166.964 56.0774 166.149 56.3462 165.307 56.489C164.411 56.6354 163.505 56.7145 162.596 56.7255C162.171 56.7354 161.727 56.741 161.295 56.741L159.723 56.7439L12.2471 56.741Z" fill="black"/>
<path d="M35.9212 29.4413C35.9368 28.2309 36.2583 27.044 36.8559 25.9912C37.4534 24.9384 38.3075 24.0538 39.3388 23.4198C38.6837 22.4842 37.8194 21.7142 36.8146 21.171C35.8099 20.6278 34.6923 20.3264 33.5506 20.2907C31.1153 20.035 28.7544 21.7479 27.5134 21.7479C26.2484 21.7479 24.3377 20.316 22.2802 20.3584C20.9493 20.4014 19.6523 20.7884 18.5155 21.4817C17.3787 22.175 16.4408 23.1509 15.7933 24.3145C12.9885 29.1705 15.0807 36.3072 17.7674 40.2325C19.1116 42.1546 20.6827 44.3016 22.7383 44.2255C24.7499 44.142 25.5012 42.9427 27.9293 42.9427C30.3349 42.9427 31.0398 44.2255 33.1372 44.1771C35.2957 44.142 36.6557 42.2464 37.9527 40.3061C38.9186 38.9366 39.6618 37.4229 40.1548 35.8212C38.9008 35.2908 37.8306 34.403 37.0778 33.2685C36.3249 32.134 35.9227 30.8029 35.9212 29.4413V29.4413Z" fill="white"/>
<path d="M31.9595 17.7087C33.1364 16.2959 33.7163 14.4799 33.5759 12.6465C31.7778 12.8353 30.1169 13.6947 28.9241 15.0533C28.3409 15.7171 27.8942 16.4892 27.6096 17.3257C27.325 18.1621 27.208 19.0465 27.2654 19.9282C28.1648 19.9374 29.0545 19.7425 29.8676 19.3581C30.6807 18.9736 31.396 18.4097 31.9595 17.7087Z" fill="white"/>
<path d="M61.3492 39.3593H54.4846L52.836 44.2269H49.9285L56.4305 26.2178H59.4514L65.9534 44.2269H62.9963L61.3492 39.3593ZM55.1955 37.1131H60.6369L57.9545 29.2132H57.8794L55.1955 37.1131Z" fill="white"/>
<path d="M79.9957 37.6626C79.9957 41.7429 77.8118 44.3643 74.5162 44.3643C73.6813 44.408 72.8511 44.2157 72.1204 43.8094C71.3898 43.4032 70.7884 42.7994 70.3849 42.0671H70.3226V48.5706H67.6274V31.0968H70.2362V33.2807H70.2858C70.7078 32.552 71.3194 31.9513 72.0556 31.5426C72.7917 31.1338 73.625 30.9323 74.4666 30.9595C77.799 30.9595 79.9957 33.5937 79.9957 37.6626ZM77.2255 37.6626C77.2255 35.0043 75.8517 33.2566 73.7556 33.2566C71.6964 33.2566 70.3113 35.0411 70.3113 37.6626C70.3113 40.3082 71.6964 42.0799 73.7556 42.0799C75.8517 42.0799 77.2255 40.345 77.2255 37.6626Z" fill="white"/>
<path d="M94.4471 37.6626C94.4471 41.7428 92.2632 44.3643 88.9676 44.3643C88.1327 44.408 87.3025 44.2157 86.5718 43.8094C85.8412 43.4031 85.2398 42.7993 84.8364 42.0671H84.774V48.5706H82.0789V31.0968H84.6876V33.2807H84.7372C85.1591 32.552 85.7707 31.9513 86.5069 31.5426C87.2431 31.1338 88.0764 30.9323 88.918 30.9595C92.2505 30.9595 94.4471 33.5937 94.4471 37.6626ZM91.6769 37.6626C91.6769 35.0043 90.3031 33.2566 88.207 33.2566C86.1478 33.2566 84.7627 35.0411 84.7627 37.6626C84.7627 40.3082 86.1478 42.0799 88.207 42.0799C90.3031 42.0799 91.6769 40.345 91.6769 37.6626H91.6769Z" fill="white"/>
<path d="M103.998 39.2091C104.198 40.995 105.933 42.1676 108.304 42.1676C110.576 42.1676 112.21 40.995 112.21 39.3847C112.21 37.9868 111.224 37.1499 108.89 36.5762L106.556 36.014C103.249 35.2152 101.714 33.6687 101.714 31.1591C101.714 28.0518 104.422 25.9175 108.267 25.9175C112.072 25.9175 114.681 28.0518 114.769 31.1591H112.048C111.886 29.3618 110.4 28.277 108.229 28.277C106.058 28.277 104.572 29.3746 104.572 30.9721C104.572 32.2453 105.521 32.9945 107.842 33.5681L109.826 34.0553C113.521 34.9291 115.057 36.4134 115.057 39.0476C115.057 42.4168 112.373 44.5271 108.104 44.5271C104.11 44.5271 101.414 42.4664 101.24 39.209L103.998 39.2091Z" fill="white"/>
<path d="M120.873 27.9893V31.0965H123.37V33.2308H120.873V40.4693C120.873 41.5938 121.373 42.1178 122.471 42.1178C122.767 42.1127 123.063 42.0919 123.357 42.0555V44.177C122.864 44.2692 122.362 44.311 121.86 44.3017C119.202 44.3017 118.165 43.3032 118.165 40.7568V33.2308H116.256V31.0965H118.165V27.9893H120.873Z" fill="white"/>
<path d="M124.816 37.6628C124.816 33.5315 127.249 30.9355 131.043 30.9355C134.85 30.9355 137.272 33.5315 137.272 37.6628C137.272 41.8053 134.863 44.39 131.043 44.39C127.225 44.39 124.816 41.8053 124.816 37.6628ZM134.526 37.6628C134.526 34.8288 133.227 33.1562 131.043 33.1562C128.859 33.1562 127.562 34.8416 127.562 37.6628C127.562 40.508 128.859 42.1679 131.043 42.1679C133.227 42.1679 134.526 40.508 134.526 37.6628H134.526Z" fill="white"/>
<path d="M139.494 31.0967H142.064V33.3315H142.127C142.301 32.6336 142.71 32.0167 143.285 31.5847C143.86 31.1527 144.566 30.9319 145.285 30.9593C145.596 30.9582 145.905 30.992 146.208 31.0599V33.5808C145.816 33.461 145.407 33.406 144.997 33.4179C144.606 33.4021 144.216 33.4711 143.853 33.6203C143.491 33.7695 143.165 33.9954 142.898 34.2824C142.632 34.5694 142.43 34.9107 142.308 35.2829C142.185 35.6552 142.145 36.0495 142.189 36.4388V44.2268H139.494L139.494 31.0967Z" fill="white"/>
<path d="M158.635 40.3707C158.272 42.7542 155.951 44.39 152.981 44.39C149.161 44.39 146.791 41.8308 146.791 37.7251C146.791 33.6066 149.174 30.9355 152.868 30.9355C156.5 30.9355 158.785 33.431 158.785 37.4121V38.3355H149.511V38.4984C149.468 38.9816 149.529 39.4684 149.689 39.9264C149.848 40.3845 150.104 40.8033 150.438 41.155C150.772 41.5068 151.177 41.7834 151.626 41.9666C152.075 42.1498 152.559 42.2353 153.043 42.2174C153.68 42.2771 154.319 42.1296 154.866 41.7969C155.412 41.4641 155.836 40.9639 156.076 40.3706L158.635 40.3707ZM149.524 36.4519H156.088C156.112 36.0174 156.047 35.5826 155.895 35.1748C155.743 34.7669 155.508 34.3949 155.206 34.082C154.904 33.7691 154.54 33.522 154.137 33.3564C153.735 33.1907 153.303 33.1101 152.868 33.1194C152.429 33.1168 151.994 33.2011 151.588 33.3675C151.181 33.5339 150.812 33.7791 150.501 34.0889C150.191 34.3988 149.944 34.7671 149.776 35.1726C149.609 35.5782 149.523 36.013 149.524 36.4519V36.4519Z" fill="white"/>
<path d="M54.8574 12.6622C55.4224 12.6216 55.9894 12.707 56.5174 12.9121C57.0455 13.1172 57.5215 13.437 57.911 13.8483C58.3005 14.2596 58.5938 14.7523 58.7699 15.2907C58.946 15.8291 59.0003 16.3999 58.9291 16.9619C58.9291 19.7265 57.435 21.3156 54.8574 21.3156H51.7317V12.6622H54.8574ZM53.0757 20.0918H54.7072C55.111 20.1159 55.515 20.0497 55.89 19.898C56.2649 19.7463 56.6013 19.5129 56.8747 19.2147C57.1481 18.9166 57.3515 18.5613 57.4702 18.1746C57.5889 17.788 57.62 17.3797 57.561 16.9796C57.6157 16.581 57.5815 16.1752 57.461 15.7914C57.3404 15.4076 57.1365 15.0552 56.8638 14.7594C56.591 14.4637 56.2562 14.2319 55.8834 14.0807C55.5106 13.9296 55.1089 13.8627 54.7072 13.885H53.0757V20.0918Z" fill="white"/>
<path d="M60.4474 18.0475C60.4064 17.6184 60.4555 17.1854 60.5916 16.7763C60.7277 16.3672 60.9477 15.9911 61.2377 15.6721C61.5277 15.353 61.8811 15.0981 62.2754 14.9237C62.6696 14.7493 63.096 14.6592 63.5271 14.6592C63.9582 14.6592 64.3846 14.7493 64.7788 14.9237C65.1731 15.0981 65.5265 15.353 65.8165 15.6721C66.1064 15.9911 66.3265 16.3672 66.4626 16.7763C66.5987 17.1854 66.6478 17.6184 66.6067 18.0475C66.6486 18.4771 66.6001 18.9107 66.4643 19.3204C66.3286 19.7302 66.1086 20.107 65.8186 20.4266C65.5286 20.7463 65.1749 21.0017 64.7802 21.1765C64.3856 21.3513 63.9587 21.4416 63.5271 21.4416C63.0955 21.4416 62.6686 21.3513 62.274 21.1765C61.8793 21.0017 61.5256 20.7463 61.2356 20.4266C60.9455 20.107 60.7256 19.7302 60.5898 19.3204C60.4541 18.9107 60.4056 18.4771 60.4474 18.0475V18.0475ZM65.2811 18.0475C65.2811 16.632 64.6452 15.8042 63.5292 15.8042C62.4089 15.8042 61.7788 16.632 61.7788 18.0475C61.7788 19.4744 62.409 20.2958 63.5292 20.2958C64.6452 20.2958 65.2811 19.4687 65.2811 18.0475H65.2811Z" fill="white"/>
<path d="M74.794 21.3155H73.4571L72.1074 16.5059H72.0054L70.6614 21.3155H69.3372L67.5371 14.7852H68.8443L70.0141 19.7682H70.1105L71.4531 14.7852H72.6895L74.0321 19.7682H74.134L75.2982 14.7852H76.587L74.794 21.3155Z" fill="white"/>
<path d="M78.1008 14.7853H79.3415V15.8227H79.4378C79.6012 15.4501 79.8767 15.1378 80.226 14.9292C80.5754 14.7207 80.981 14.6263 81.3866 14.6593C81.7043 14.6354 82.0234 14.6833 82.3201 14.7994C82.6168 14.9156 82.8836 15.097 83.1006 15.3303C83.3177 15.5636 83.4795 15.8427 83.5741 16.147C83.6687 16.4513 83.6935 16.7729 83.6469 17.0881V21.3156H82.3581V17.4118C82.3581 16.3623 81.9021 15.8404 80.9489 15.8404C80.7332 15.8304 80.5178 15.8671 80.3176 15.9481C80.1174 16.029 79.9371 16.1523 79.789 16.3095C79.6408 16.4667 79.5285 16.6541 79.4596 16.8587C79.3906 17.0634 79.3668 17.2806 79.3896 17.4953V21.3157H78.1008L78.1008 14.7853Z" fill="white"/>
<path d="M85.7007 12.2358H86.9895V21.3155H85.7007V12.2358Z" fill="white"/>
<path d="M88.7809 18.0476C88.7399 17.6184 88.789 17.1854 88.9251 16.7763C89.0612 16.3673 89.2814 15.9911 89.5714 15.6721C89.8614 15.3531 90.2148 15.0981 90.6091 14.9237C91.0034 14.7493 91.4298 14.6592 91.8609 14.6592C92.292 14.6592 92.7184 14.7493 93.1127 14.9237C93.507 15.0981 93.8604 15.3531 94.1504 15.6721C94.4404 15.9911 94.6606 16.3673 94.7967 16.7763C94.9328 17.1854 94.9819 17.6184 94.9409 18.0476C94.9827 18.4772 94.9341 18.9108 94.7984 19.3206C94.6626 19.7303 94.4426 20.1071 94.1525 20.4267C93.8625 20.7464 93.5087 21.0018 93.1141 21.1766C92.7194 21.3514 92.2925 21.4417 91.8609 21.4417C91.4293 21.4417 91.0024 21.3514 90.6077 21.1766C90.2131 21.0018 89.8593 20.7464 89.5693 20.4267C89.2792 20.1071 89.0592 19.7303 88.9234 19.3206C88.7877 18.9108 88.7391 18.4772 88.7809 18.0476V18.0476ZM93.6146 18.0476C93.6146 16.6321 92.9787 15.8043 91.8627 15.8043C90.7424 15.8043 90.1122 16.6321 90.1122 18.0476C90.1122 19.4745 90.7425 20.2959 91.8627 20.2959C92.9787 20.2959 93.6146 19.4688 93.6146 18.0476H93.6146Z" fill="white"/>
<path d="M96.2979 19.4688C96.2979 18.2933 97.1731 17.6156 98.7267 17.5193L100.496 17.4173V16.8537C100.496 16.1639 100.04 15.7745 99.1587 15.7745C98.4392 15.7745 97.9407 16.0386 97.7977 16.5003H96.5499C96.6817 15.3786 97.7368 14.6592 99.2182 14.6592C100.855 14.6592 101.779 15.4742 101.779 16.8537V21.3156H100.538V20.3979H100.436C100.229 20.727 99.9385 20.9954 99.5939 21.1756C99.2493 21.3557 98.8631 21.4411 98.4746 21.4232C98.2005 21.4517 97.9234 21.4224 97.6613 21.3373C97.3991 21.2522 97.1577 21.1131 96.9526 20.9289C96.7475 20.7448 96.5833 20.5197 96.4705 20.2682C96.3578 20.0167 96.2989 19.7444 96.2979 19.4688V19.4688ZM100.496 18.9108V18.3648L98.9009 18.4668C98.0016 18.527 97.5937 18.8329 97.5937 19.4086C97.5937 19.9963 98.1036 20.3384 98.8047 20.3384C99.0101 20.3591 99.2176 20.3384 99.4148 20.2774C99.6121 20.2163 99.795 20.1162 99.9528 19.983C100.111 19.8498 100.24 19.6863 100.333 19.5021C100.426 19.3179 100.482 19.1168 100.496 18.9108V18.9108Z" fill="white"/>
<path d="M103.472 18.0475C103.472 15.984 104.533 14.6768 106.183 14.6768C106.591 14.658 106.996 14.7557 107.351 14.9586C107.706 15.1615 107.995 15.4611 108.186 15.8225H108.282V12.2358H109.571V21.3155H108.336V20.2837H108.234C108.029 20.6426 107.729 20.9385 107.367 21.1394C107.006 21.3402 106.596 21.4383 106.183 21.4231C104.522 21.4232 103.472 20.1159 103.472 18.0475ZM104.804 18.0475C104.804 19.4326 105.457 20.2661 106.549 20.2661C107.635 20.2661 108.306 19.4206 108.306 18.0531C108.306 16.6921 107.628 15.8346 106.549 15.8346C105.464 15.8346 104.804 16.6737 104.804 18.0475H104.804Z" fill="white"/>
<path d="M114.903 18.0475C114.862 17.6184 114.911 17.1854 115.047 16.7763C115.183 16.3672 115.404 15.9911 115.694 15.6721C115.983 15.353 116.337 15.0981 116.731 14.9237C117.125 14.7493 117.552 14.6592 117.983 14.6592C118.414 14.6592 118.84 14.7493 119.235 14.9237C119.629 15.0981 119.982 15.353 120.272 15.6721C120.562 15.9911 120.782 16.3672 120.918 16.7763C121.054 17.1854 121.104 17.6184 121.063 18.0475C121.104 18.4771 121.056 18.9107 120.92 19.3204C120.784 19.7302 120.564 20.107 120.274 20.4266C119.984 20.7463 119.631 21.0017 119.236 21.1765C118.841 21.3513 118.415 21.4416 117.983 21.4416C117.551 21.4416 117.124 21.3513 116.73 21.1765C116.335 21.0017 115.981 20.7463 115.691 20.4266C115.401 20.107 115.181 19.7302 115.046 19.3204C114.91 18.9107 114.861 18.4771 114.903 18.0475V18.0475ZM119.737 18.0475C119.737 16.632 119.101 15.8042 117.985 15.8042C116.865 15.8042 116.235 16.632 116.235 18.0475C116.235 19.4744 116.865 20.2958 117.985 20.2958C119.101 20.2958 119.737 19.4687 119.737 18.0475Z" fill="white"/>
<path d="M122.792 14.7853H124.032V15.8227H124.129C124.292 15.4501 124.568 15.1378 124.917 14.9292C125.266 14.7207 125.672 14.6263 126.077 14.6593C126.395 14.6354 126.714 14.6833 127.011 14.7994C127.308 14.9156 127.574 15.097 127.792 15.3303C128.009 15.5636 128.17 15.8427 128.265 16.147C128.36 16.4513 128.384 16.7729 128.338 17.0881V21.3156H127.049V17.4118C127.049 16.3623 126.593 15.8404 125.64 15.8404C125.424 15.8304 125.209 15.8671 125.009 15.9481C124.808 16.029 124.628 16.1523 124.48 16.3095C124.332 16.4667 124.219 16.6541 124.15 16.8587C124.082 17.0634 124.058 17.2806 124.081 17.4953V21.3157H122.792V14.7853Z" fill="white"/>
<path d="M135.62 13.1592V14.8148H137.035V15.9004H135.62V19.2583C135.62 19.9424 135.902 20.2419 136.544 20.2419C136.708 20.2414 136.872 20.2314 137.035 20.2121V21.2857C136.804 21.3271 136.569 21.3491 136.334 21.3515C134.901 21.3515 134.33 20.8473 134.33 19.5883V15.9003H133.293V14.8147H134.33V13.1592H135.62Z" fill="white"/>
<path d="M138.795 12.2358H140.073V15.8346H140.175C140.346 15.4585 140.629 15.1444 140.986 14.935C141.342 14.7257 141.754 14.6313 142.166 14.6647C142.482 14.6475 142.798 14.7003 143.091 14.8193C143.385 14.9383 143.648 15.1205 143.863 15.3531C144.078 15.5856 144.239 15.8627 144.334 16.1645C144.43 16.4663 144.457 16.7855 144.415 17.0993V21.3155H143.125V17.4172C143.125 16.3741 142.639 15.8459 141.729 15.8459C141.507 15.8277 141.284 15.8582 141.076 15.9351C140.867 16.012 140.678 16.1336 140.521 16.2913C140.365 16.449 140.245 16.639 140.169 16.848C140.093 17.0571 140.065 17.2801 140.084 17.5015V21.3154H138.795L138.795 12.2358Z" fill="white"/>
<path d="M151.93 19.5525C151.754 20.1493 151.375 20.6656 150.858 21.0109C150.341 21.3563 149.718 21.5088 149.1 21.4417C148.67 21.4531 148.242 21.3707 147.847 21.2002C147.452 21.0298 147.098 20.7754 146.811 20.4547C146.524 20.134 146.311 19.7547 146.185 19.3431C146.059 18.9314 146.024 18.4974 146.083 18.0711C146.026 17.6434 146.061 17.2084 146.187 16.7956C146.312 16.3827 146.525 16.0017 146.81 15.6781C147.096 15.3546 147.447 15.0962 147.841 14.9205C148.236 14.7447 148.663 14.6556 149.094 14.6593C150.911 14.6593 152.007 15.9007 152.007 17.9514V18.4011H147.396V18.4733C147.376 18.7129 147.406 18.9541 147.485 19.1815C147.563 19.4088 147.688 19.6172 147.852 19.7934C148.016 19.9695 148.214 20.1095 148.435 20.2043C148.656 20.2992 148.895 20.3468 149.135 20.3441C149.444 20.3811 149.756 20.3256 150.033 20.1846C150.309 20.0437 150.538 19.8236 150.689 19.5524L151.93 19.5525ZM147.396 17.4479H150.695C150.711 17.2287 150.681 17.0086 150.607 16.8016C150.533 16.5946 150.417 16.4054 150.265 16.2461C150.114 16.0868 149.931 15.9609 149.728 15.8765C149.525 15.7921 149.307 15.7511 149.087 15.7562C148.864 15.7534 148.643 15.7952 148.437 15.8793C148.23 15.9633 148.042 16.0878 147.885 16.2455C147.727 16.4031 147.603 16.5908 147.519 16.7973C147.435 17.0038 147.393 17.225 147.396 17.4479H147.396Z" fill="white"/>
</svg>
