<svg width="228" height="34" viewBox="0 0 228 34" fill="none" xmlns="http://www.w3.org/2000/svg">
<g clip-path="url(#clip0_3222_4865)">
<path d="M78.151 3.94727H82.6105L91.5269 23.3381H87.5876L85.6723 19.1271H75.115L73.1739 23.3381H69.2346L78.151 3.94727ZM84.606 16.337L80.4209 6.95735H80.3665L76.1814 16.337H84.606Z" fill="white"/>
<path d="M94.04 28.9158C92.4353 28.4318 91.1774 27.7614 90.2664 26.9047L91.9332 24.5262C92.7717 25.256 93.8381 25.8255 95.1322 26.2344C96.4263 26.6459 97.7308 26.8504 99.043 26.8504C100.446 26.8504 101.66 26.6407 102.679 26.2214C103.699 25.8022 104.483 25.2328 105.032 24.5132C105.578 23.7937 105.853 22.9215 105.853 21.9017V20.8354H105.824C105.477 21.3815 104.967 21.8603 104.292 22.2718C103.616 22.6834 102.866 23.0069 102.035 23.2424C101.204 23.4805 100.345 23.597 99.4493 23.597C97.8265 23.597 96.403 23.2968 95.1814 22.6937C93.9597 22.0933 93.0124 21.2314 92.3369 20.1081C91.6614 18.9874 91.3249 17.7244 91.3249 16.319C91.3249 14.823 91.6614 13.5289 92.3369 12.4341C93.0124 11.3393 93.9546 10.4774 95.1658 9.84844C96.3797 9.21951 97.8058 8.90375 99.4467 8.90375C100.831 8.90375 102.11 9.1988 103.275 9.7915C104.442 10.3842 105.299 11.1633 105.845 12.1287H105.873L106.339 9.42139H109.264L109.209 21.9198C109.209 23.4521 108.803 24.8005 107.993 25.9678C107.183 27.1351 106.016 28.0384 104.494 28.6751C102.972 29.3144 101.199 29.6327 99.175 29.6327C97.3503 29.6327 95.6369 29.392 94.0322 28.908L94.04 28.9158ZM103.314 20.3695C104.17 19.9865 104.83 19.4403 105.296 18.7286C105.762 18.0168 105.992 17.2248 105.992 16.35C105.992 15.4752 105.754 14.6496 105.281 13.93C104.807 13.2105 104.15 12.6489 103.311 12.2477C102.472 11.8465 101.486 11.6472 100.358 11.6472C99.2293 11.6472 98.2432 11.8491 97.4046 12.2477C96.5661 12.6489 95.9087 13.2053 95.435 13.9171C94.9614 14.6289 94.7233 15.439 94.7233 16.35C94.7233 17.2611 94.9562 18.0453 95.4195 18.7571C95.8854 19.4688 96.5453 20.0097 97.402 20.385C98.2587 20.7577 99.2423 20.9467 100.355 20.9467C101.468 20.9467 102.452 20.7552 103.308 20.3721L103.314 20.3695Z" fill="white"/>
<path d="M135.407 22.6678C133.629 21.793 132.244 20.5765 131.251 19.0158C130.257 17.4577 129.76 15.6925 129.76 13.7229C129.76 11.7533 130.27 9.94931 131.292 8.36274C132.312 6.77617 133.73 5.53642 135.544 4.64349C137.359 3.75056 139.406 3.3028 141.684 3.3028C143.252 3.3028 144.751 3.55385 146.182 4.05596C147.613 4.55808 148.817 5.24913 149.792 6.1343C150.768 7.01946 151.439 8.01592 151.804 9.12885L148.302 10.0321C148.066 9.28414 147.613 8.64227 146.948 8.10392C146.283 7.56557 145.488 7.13852 144.569 6.81758C143.648 6.49923 142.696 6.33876 141.712 6.33876C140.126 6.33876 138.705 6.65453 137.447 7.28346C136.189 7.91239 135.221 8.77944 134.548 9.88202C133.872 10.9846 133.536 12.258 133.536 13.697C133.536 15.1361 133.906 16.3603 134.644 17.4706C135.381 18.5836 136.417 19.4532 137.747 20.0821C139.077 20.7111 140.581 21.0268 142.258 21.0268C143.736 21.0268 145.085 20.7628 146.306 20.2349C147.528 19.7069 148.504 18.9951 149.233 18.1022C149.963 17.2092 150.336 16.2154 150.354 15.1206H138.21V12.4676H154.019V23.3536H151.012L150.683 19.7716H150.654C150.036 20.6464 149.27 21.4021 148.356 22.0414C147.445 22.6807 146.397 23.1621 145.211 23.4908C144.026 23.8195 142.768 23.9826 141.438 23.9826C139.196 23.9826 137.185 23.5452 135.407 22.6704V22.6678Z" fill="white"/>
<path d="M156.206 3.13977H159.597V23.3511H156.206V3.13977Z" fill="white"/>
<path d="M165.943 22.968C164.522 22.3469 163.422 21.472 162.648 20.3436C161.875 19.2125 161.486 17.9003 161.486 16.4043C161.486 14.9083 161.875 13.5728 162.648 12.4521C163.425 11.3314 164.522 10.4566 165.943 9.82769C167.367 9.19876 169.005 8.883 170.866 8.883C172.727 8.883 174.313 9.19876 175.734 9.82769C177.158 10.4566 178.25 11.3314 179.016 12.4521C179.782 13.5728 180.165 14.8902 180.165 16.4043C180.165 17.9184 179.782 19.2125 179.016 20.3436C178.25 21.4746 177.158 22.3494 175.734 22.968C174.313 23.5892 172.691 23.8972 170.866 23.8972C169.041 23.8972 167.367 23.5866 165.943 22.968ZM173.941 20.5895C174.826 20.1883 175.52 19.6266 176.019 18.9071C176.521 18.1876 176.772 17.3516 176.772 16.4043C176.772 15.457 176.521 14.6133 176.019 13.8756C175.517 13.138 174.826 12.5712 173.941 12.1804C173.056 11.7896 172.031 11.5929 170.863 11.5929C169.696 11.5929 168.588 11.7896 167.703 12.1804C166.821 12.5712 166.127 13.138 165.625 13.8756C165.123 14.6133 164.872 15.457 164.872 16.4043C164.872 17.3516 165.123 18.1876 165.625 18.9071C166.127 19.6266 166.818 20.1883 167.703 20.5895C168.588 20.9906 169.642 21.1899 170.863 21.1899C172.085 21.1899 173.056 20.9906 173.941 20.5895Z" fill="white"/>
<path d="M188.095 22.981C186.892 22.4064 186.007 21.6092 185.442 20.5869H185.414L184.976 23.3485H182.078V3.13977H185.468V12.1649H185.497C186.097 11.1632 186.995 10.3738 188.191 9.79923C189.384 9.22465 190.72 8.93736 192.198 8.93736C193.838 8.93736 195.288 9.24276 196.546 9.85358C197.804 10.4644 198.779 11.3392 199.47 12.478C200.164 13.6168 200.511 14.9265 200.511 16.4017C200.511 17.877 200.164 19.1815 199.47 20.3125C198.777 21.4436 197.804 22.3132 196.546 22.924C195.288 23.5349 193.82 23.8403 192.143 23.8403C190.647 23.8403 189.299 23.553 188.095 22.9784V22.981ZM194.276 20.4652C195.169 20.0744 195.868 19.5257 196.367 18.8243C196.869 18.1229 197.12 17.3154 197.12 16.4043C197.12 15.4933 196.869 14.6625 196.367 13.9714C195.865 13.2778 195.169 12.7317 194.276 12.3305C193.383 11.9293 192.361 11.73 191.214 11.73C190.067 11.73 189.074 11.9293 188.178 12.3305C187.285 12.7317 186.591 13.2778 186.1 13.9714C185.608 14.6651 185.362 15.4752 185.362 16.4043C185.362 17.3335 185.608 18.1177 186.1 18.8114C186.591 19.505 187.285 20.0511 188.178 20.4523C189.071 20.8535 190.083 21.0528 191.214 21.0528C192.345 21.0528 193.383 20.8561 194.276 20.4652Z" fill="white"/>
<path d="M204.831 23.3796C203.866 23.0509 203.123 22.5772 202.603 21.9587C202.082 21.3375 201.823 20.5998 201.823 19.7432C201.823 18.449 202.476 17.3905 203.778 16.57C205.082 15.7495 206.974 15.2293 209.454 15.0119L214.488 14.546C214.853 14.546 215.135 14.4632 215.334 14.3001C215.536 14.1371 215.634 13.9093 215.634 13.6169C215.634 13.2157 215.443 12.8611 215.06 12.5505C214.677 12.2399 214.138 11.9863 213.447 11.7844C212.753 11.5825 211.951 11.4842 211.04 11.4842C210.072 11.4842 209.138 11.611 208.237 11.8672C207.334 12.1235 206.524 12.4729 205.804 12.9206C205.085 13.3684 204.523 13.855 204.122 14.383L202.043 12.7964C202.481 12.0665 203.151 11.4143 204.055 10.8397C204.958 10.2651 206.024 9.79925 207.254 9.44467C208.483 9.09009 209.756 8.9115 211.069 8.9115C212.546 8.9115 213.89 9.11597 215.104 9.52749C216.317 9.93643 217.267 10.5265 217.961 11.2927C218.655 12.0588 219.001 12.9879 219.001 14.0827V20.1806C219.001 20.5274 219.108 20.7966 219.317 20.9881C219.527 21.1796 219.778 21.2754 220.07 21.2754C220.381 21.2754 220.663 21.2029 220.917 21.0554C221.173 20.9104 221.39 20.6904 221.574 20.398L222.804 22.2848C222.42 22.7765 221.9 23.1596 221.245 23.4339C220.591 23.7083 219.868 23.8455 219.084 23.8455C218.463 23.8455 217.904 23.7316 217.402 23.5038C216.9 23.2761 216.496 22.9525 216.185 22.5332C215.875 22.1139 215.701 21.6222 215.665 21.0554V20.7008H215.637C215.181 21.3401 214.594 21.894 213.872 22.3702C213.152 22.8438 212.319 23.2139 211.369 23.4779C210.421 23.7419 209.381 23.8739 208.25 23.8739C206.938 23.8739 205.799 23.7109 204.831 23.3822V23.3796ZM212.407 20.794C213.372 20.4213 214.149 19.9269 214.731 19.3161C215.313 18.7053 215.606 18.0168 215.606 17.2507V16.7305L209.917 17.2222C208.294 17.3309 207.103 17.5768 206.348 17.9599C205.592 18.3429 205.214 18.8269 205.214 19.4093C205.214 19.9916 205.561 20.4627 206.254 20.8173C206.948 21.1718 207.914 21.3504 209.153 21.3504C210.393 21.3504 211.441 21.1641 212.409 20.7888L212.407 20.794Z" fill="white"/>
<path d="M224.002 3.13977H227.393V23.3511H224.002V3.13977Z" fill="white"/>
<path fill-rule="evenodd" clip-rule="evenodd" d="M110.718 4.27341L114.407 7.98231L110.718 11.6912C110.276 12.1364 110.276 12.8533 110.718 13.2959C111.161 13.7411 111.886 13.7411 112.328 13.2959L116.037 9.56629L119.746 13.2959C120.189 13.7411 120.911 13.7411 121.356 13.2959C121.799 12.8507 121.799 12.1338 121.356 11.6912L117.668 7.98231L121.356 4.27341C121.799 3.83082 121.799 3.1113 121.356 2.66872C120.913 2.22355 120.191 2.22355 119.746 2.66872L116.037 6.39833L112.328 2.66872C111.886 2.22355 111.164 2.22355 110.718 2.66872C110.276 3.1113 110.276 3.83082 110.718 4.27341Z" fill="#30B27C"/>
<path d="M39.1777 1.68781H33.2197V7.64586C33.2197 12.3771 37.0683 16.2258 41.7996 16.2258H47.139L41.489 10.5783C41.3182 10.4075 41.3182 10.1305 41.489 9.95972C41.6598 9.7889 41.9367 9.7889 42.1076 9.95972L47.7576 15.6098V10.2703C47.7576 5.53906 43.909 1.69039 39.1777 1.69039V1.68781ZM41.489 22.5074C41.3182 22.3365 41.3182 22.0596 41.489 21.8888L46.8285 16.5467H41.797C37.0657 16.5467 33.2171 20.3954 33.2171 25.1266V31.0847H39.1751C43.9064 31.0847 47.755 27.236 47.755 22.5048V16.8573L42.105 22.5074C41.9341 22.6782 41.6572 22.6782 41.4864 22.5074H41.489ZM56.6611 1.68781C51.9298 1.68781 48.0811 5.53647 48.0811 10.2677V15.3717L53.4931 9.95972C53.6639 9.7889 53.9409 9.7889 54.1117 9.95972C54.2825 10.1305 54.2825 10.4075 54.1117 10.5783L48.4616 16.2258H54.0392C58.7704 16.2258 62.6191 12.3771 62.6191 7.64586V1.68781H56.6611ZM54.0366 16.5493H48.7696L54.1117 21.8914C54.2825 22.0622 54.2825 22.3391 54.1117 22.5099C53.9409 22.6808 53.6639 22.6808 53.4931 22.5099L48.0811 17.098V22.5099C48.0811 27.2412 51.9298 31.0898 56.6611 31.0898H62.6191V25.1318C62.6191 20.4005 58.7704 16.5519 54.0392 16.5519L54.0366 16.5493ZM7.27028 1.68781C3.26114 1.68781 0 4.94895 0 8.95808C0 12.9672 3.26114 16.2284 7.27028 16.2284H14.5406V8.95808C14.538 4.94895 11.2768 1.68781 7.27028 1.68781ZM16.6085 25.1292V31.0873H22.5666C27.2978 31.0873 31.1465 27.2386 31.1465 22.5074V16.5493H25.1884C20.4572 16.5493 16.6085 20.398 16.6085 25.1292ZM23.8788 1.68781C19.8697 1.68781 16.6111 4.94895 16.6111 8.95808C16.6111 12.9672 19.8723 16.2284 23.8788 16.2284H31.1491V8.95808C31.1491 4.94895 27.8879 1.68781 23.8788 1.68781Z" fill="url(#paint0_radial_3222_4865)"/>
</g>
<defs>
<radialGradient id="paint0_radial_3222_4865" cx="0" cy="0" r="1" gradientUnits="userSpaceOnUse" gradientTransform="translate(47.8016 17.0876) scale(31.8583 31.8583)">
<stop stop-color="#047AAC"/>
<stop offset="1" stop-color="#8AB755" stop-opacity="0.85"/>
</radialGradient>
<clipPath id="clip0_3222_4865">
<rect width="227.395" height="29.3995" fill="white" transform="translate(0 1.68781)"/>
</clipPath>
</defs>
</svg>
